<svg version="1" xmlns="http://www.w3.org/2000/svg" width="2093.333" height="2093.333"
     viewBox="0 0 1570.000000 1570.000000">
    <path d="M0 778v597h1570V181H0v597zm1555 0v582H15V196h1540v582z"/>
    <path d="M94.7 807.2c.1 65.1.2 125.8.3 135V959h249.5l-.2-28.1c-.1-15.4-.4-28.6-.6-29.2-.3-.9-24-1.2-95.1-1.2-62.4 0-94.7-.3-94.9-1-.2-.9-.1-42.2.2-45.1.1-.9 19.4-1.2 71.9-1.2 39.4-.1 73.8-.1 76.5-.1l4.7-.1v-58l-3.7-.1c-2.1 0-36.6-.1-76.7-.2l-73-.2-.1-22.5c0-12.4.1-23 .2-23.5.2-.7 32.7-1 95.3-1h95l.1-3.7v-26.3V692l-.1-3H94.5l.2 118.2zM373 824v135h58l.2-90.1.3-90.1 9.5 11.3c5.2 6.2 10.2 12.1 11 12.9.8.9 2.4 2.8 3.5 4.1 4.5 5.5 22 26.4 22.5 26.9.3.3 5 5.9 10.5 12.5s13.8 16.5 18.5 22c4.7 5.6 10.3 12.3 12.5 14.9 2.2 2.7 4.8 5.8 5.8 7 1.1 1.1 3.5 4.1 5.5 6.5 2.1 2.4 9 10.7 15.6 18.5 6.5 7.8 13.7 16.3 16 19 12.9 15.5 17 20.3 18.7 22.3 1.9 2.3 2 2.3 31.9 2.3h30V689h-58.9v87.2c0 48 0 88.4-.1 89.8 0 2.5-.1 2.4-3.3-1.1-1.7-1.9-6.1-7.1-9.7-11.5-3.5-4.3-6.7-8.1-7-8.4-.3-.3-3.9-4.6-8-9.5-4.1-5-8-9.5-8.6-10.1-.5-.6-2.6-3.1-4.5-5.4-1.8-2.3-6.3-7.7-9.9-11.9-3.6-4.2-8.3-9.8-10.5-12.5-2.2-2.7-4.8-5.8-5.8-7-1.1-1.1-3.5-4.1-5.5-6.5-3.5-4.2-8.6-10.3-13.6-16.1-4.8-5.7-17.2-20.6-18.6-22.3-.8-1.1-2.2-2.7-3-3.6-.9-.9-4.7-5.4-8.5-10.1-3.9-4.7-7.4-9-8-9.6-.5-.6-2.9-3.3-5.1-6-2.3-2.7-8-9.4-12.6-14.9l-8.4-10-30.2-.3-30.2-.2v135zM671.5 717.7c-.1 15.9.3 29 .6 29.3.4.3 24.2.5 52.8.5H777v4.5c.1 2.5.1 50.1.1 105.7V959h58.6V747.5l52.4-.1c28.8-.1 52.6-.2 52.9-.3.3 0 .5-13.2.5-29.1v-29h-270v28.7zM1007.4 690.5c-20.1 4.4-37.1 21.2-41.8 41.4-2 8.4-2 69.7 0 78.1 5.1 22.2 24.3 39.9 46.1 42.6 2.6.3 40.5.6 84.1.6h79.2v2.7c.5 27.8.3 44.1-.5 44.4-.5.2-35 .3-76.5.3l-75.5-.1-.2-9.5c-.1-5.2-.2-10.2-.2-11.1-.1-1.4-3.3-1.6-28.8-1.5l-28.8.1-.1 16.1c-.1 12.1.3 17.8 1.6 22.6 5.2 20.1 21.8 36.1 41.8 40.3 10.3 2.2 173.8 2.1 183.1 0 10.1-2.4 18.7-7.2 26.1-14.5 9.1-9 14.6-19.4 16.4-31 .7-4.5.7-65.4 0-70-3.4-22.3-22-41.9-43.6-45.9-4.9-1-27.4-1.3-87-1.4l-80.3-.2-.1-23.5-.1-23.5H1175l.1 4.5c0 2.5.1 7.4.2 11l.2 6.5h29l29 .1.5-2.5c1.1-5.1-.7-34.5-2.4-39.1-6.6-18.2-18.5-30.2-36.1-36.1l-8-2.8h-87c-68.7 0-88.3.3-93.1 1.4zM131.9 1011.4c-.2.2-1.7.6-3.4.9-7.3 1-15.2 5.4-22 12.2-6.6 6.5-10.7 13.8-12.4 22.3-1.6 7.5-1.5 191 0 198.4 3.5 16.4 17.9 31.3 33.9 34.7 2.8.7 47.8 1 119.3 1.1H362l.1-2.2c.4-8.6 0-27-.5-27.6-.4-.3-51.9-.6-114.5-.7H133.2l-3.8-3.1c-2.5-2-4.3-4.5-5-7-.7-2.7-1-31.4-1-95.9.2-102.2-.3-95.6 6.8-100.7l3.3-2.3 113.9-.1h114l.5-2.5c.5-1.9.6-21 .2-26.7-.1-.9-23.8-1.2-114.9-1.2-63.2 0-115.1.2-115.3.4zM401.2 1012.9c-.4.9-.7 61.4-.7 134.6l.1 133 15.2.3 15.2.3v-102.2l4.3.7c2.3.4 27.9.8 56.9.8 29 .1 52.8.3 53 .6 1 1.3 16.8 20.2 29.3 35 7.6 9.1 21.3 25.5 30.5 36.5 9.3 11 18.5 21.9 20.6 24.3l3.9 4.3 19.6-.3 19.6-.3-18.9-22.5c-10.4-12.4-21-24.9-23.5-27.8-2.5-2.9-5.5-6.5-6.7-8-1.2-1.5-2.8-3.4-3.6-4.2-.8-.9-3.3-3.8-5.5-6.5s-6.7-8-10-11.9c-10.8-12.7-15.5-18.4-15.5-18.8 0-.2 10.2-.3 22.8-.3 16 .1 24.3-.3 28.1-1.3 15.2-3.8 26.2-13.8 32.4-29.5 2-5 2.1-7.2 2.2-50.6.1-24.9-.2-47.7-.7-50.6-1.2-7.8-6.9-18.3-13.1-24.2-5.7-5.5-14.8-10.5-21.2-11.9-2.2-.4-55.7-.8-118.8-.9-103.3-.1-114.9 0-115.5 1.4zm230.4 30.4c3.9 2 5.9 4.5 7.2 8.7 1.5 4.9 1.4 85.4-.1 88.9-1.4 3.2-6.5 8-8.6 8.3-.9.1-43.2.2-94.1.4-90.7.2-92.6.2-96.8-1.8-3-1.4-4.9-3.2-6.3-6-1.9-3.8-2-5.5-1.7-47.3.3-42.2.4-43.4 2.4-46.2 1.1-1.5 3.9-3.7 6-4.8 3.9-2 5.8-2 96.5-1.9 80.8.1 92.9.3 95.5 1.7zM707.9 1011.7c-.1 1-.1 265.3 0 267.5.1 1.7 6.7 1.8 123.1 1.8h123.1l-.3-15.2-.3-15.2H738.1V1206l-.1-44.6 84.3.1c46.3 0 85.4-.2 86.8-.3l2.6-.4V1146c0-12.7-.3-14.9-1.6-15.2-.9-.2-40-.3-86.8-.3l-85.3.1.1-44.6v-44.6l107.9.1h108V1011H831c-67.6 0-123 .3-123.1.7zM987.1 1013.7c.6 1.6 4 10.9 7.5 20.8 3.6 9.9 6.9 18.9 7.4 20 .5 1.1 2.3 6 4 11 1.7 4.9 3.8 10.8 4.7 13 3 8 65.6 180.2 68 187 1.3 3.8 2.8 7.9 3.3 9 .5 1.1 1.2 3 1.5 4.2.6 2.2 1 2.3 14.1 2.3 7.4 0 13.4-.2 13.4-.4 0-.4 2.7-7.8 11.7-32.6 2.5-6.9 6.2-17.2 8.3-23 17.6-48.9 59.2-162.8 59.9-164.1.5-.9 1.5-3.6 2.1-6 .9-3.1 1.4-3.9 2-2.8.7 1.1 51.8 141.2 68.7 187.9 1.8 5.2 6 16.6 9.1 25.3l5.7 15.7 13.5-.2 13.4-.3 3.4-9.5c1.9-5.2 3.8-10.4 4.3-11.5.5-1.1 2.7-7 4.8-13 2.2-6.1 5.8-16.2 8-22.5 2.3-6.3 4.5-12.4 5-13.5.8-1.7 6.1-16.1 27.1-74.5 5.7-15.8 11.2-30.8 17.3-47.5 21.1-58.1 27.7-76.4 27.7-76.9 0-.3-7.3-.6-16.3-.6h-16.2l-2.9 8.2c-1.6 4.6-3.4 9.4-3.9 10.8-.6 1.4-1.1 2.7-1.1 3-.1.3-.9 2.5-1.8 5s-9.2 25.2-18.3 50.5c-9.2 25.3-18.2 50-20 55-1.9 4.9-5.9 16.2-9 25-3.1 8.8-6.1 16.9-6.6 18-.5 1.1-4 10.8-7.8 21.5-6.6 18.7-7 19.4-8.1 16.5-.6-1.7-3.6-9.8-6.6-18-2.9-8.3-5.8-15.8-6.4-16.7-.5-1-1-2.3-1-3 0-1-3.7-11.5-8.5-23.8-.8-1.9-4.1-11.2-7.5-20.5-6.3-17.3-11.1-30.5-17.3-47.5-2-5.2-6.5-17.8-10.2-28-3.6-10.2-7-19.4-7.5-20.5-.5-1.1-3.6-9.4-6.8-18.5l-6-16.5-18.4-.3-18.5-.2-8.2 22.7c-4.5 12.6-8.6 23.7-9.1 24.8-.5 1.1-8.4 22.7-17.5 48s-17.2 47.6-18 49.5c-.7 1.9-2.8 7.5-4.5 12.5-1.7 4.9-3.5 9.9-4 11-.5 1.1-4.1 11-8 22-9 25.1-9.2 25.6-9.6 25.2-.4-.4-6.3-16.5-31.6-85.7-9.9-27.2-21.1-58.1-25-68.5-3.8-10.5-10.4-28.6-14.6-40.3l-7.7-21.2H986l1.1 2.7z"/>
</svg>